<mxfile host="65bd71144e">
    <diagram name="analysis_04_logout" id="0">
        <mxGraphModel dx="732" dy="323" grid="1" gridSize="10" guides="1" tooltips="1" connect="1" arrows="1" fold="1" page="1" pageScale="1" pageWidth="827" pageHeight="1169" math="0" shadow="0">
            <root>
                <mxCell id="0"/>
                <mxCell id="1" parent="0"/>
                <mxCell id="e2" style="edgeStyle=orthogonalEdgeStyle;rounded=0;orthogonalLoop=1;html=1;entryX=0;entryY=0.474;entryDx=0;entryDy=0;entryPerimeter=0;exitX=0.983;exitY=0.483;exitDx=0;exitDy=0;exitPerimeter=0;" parent="1" source="4" target="6" edge="1">
                    <mxGeometry relative="1" as="geometry">
                        <mxPoint x="400" y="60" as="sourcePoint"/>
                        <mxPoint x="460" y="60" as="targetPoint"/>
                    </mxGeometry>
                </mxCell>
                <mxCell id="2" value="ユーザー" style="shape=umlActor;verticalLabelPosition=bottom;verticalAlign=top;html=1;" parent="1" vertex="1">
                    <mxGeometry x="60" y="30" width="30" height="60" as="geometry"/>
                </mxCell>
                <mxCell id="4" value="&lt;span style=&quot;color: rgb(0, 0, 0); text-wrap-mode: nowrap;&quot;&gt;返品受付サイト&lt;/span&gt;" style="shape=umlBoundary;whiteSpace=wrap;html=1;" parent="1" vertex="1">
                    <mxGeometry x="260" y="20" width="100" height="80" as="geometry"/>
                </mxCell>
                <mxCell id="12" style="edgeStyle=none;html=1;entryX=0.733;entryY=0.004;entryDx=0;entryDy=0;entryPerimeter=0;" parent="1" source="6" target="13" edge="1">
                    <mxGeometry relative="1" as="geometry">
                        <mxPoint x="470" y="170" as="targetPoint"/>
                    </mxGeometry>
                </mxCell>
                <mxCell id="6" value="" style="ellipse;shape=umlControl;whiteSpace=wrap;html=1;" parent="1" vertex="1">
                    <mxGeometry x="500" y="15" width="90" height="95" as="geometry"/>
                </mxCell>
                <mxCell id="8" value="" style="endArrow=block;startArrow=block;endFill=1;startFill=1;html=1;exitX=1;exitY=0.547;exitDx=0;exitDy=0;exitPerimeter=0;" parent="1" source="6" target="9" edge="1">
                    <mxGeometry width="160" relative="1" as="geometry">
                        <mxPoint x="540" y="180" as="sourcePoint"/>
                        <mxPoint x="820" y="100" as="targetPoint"/>
                    </mxGeometry>
                </mxCell>
                <mxCell id="9" value="" style="ellipse;shape=umlEntity;whiteSpace=wrap;html=1;" parent="1" vertex="1">
                    <mxGeometry x="720" y="30" width="80" height="80" as="geometry"/>
                </mxCell>
                <mxCell id="13" value="" style="shape=umlBoundary;whiteSpace=wrap;html=1;" parent="1" vertex="1">
                    <mxGeometry x="400" y="145" width="100" height="80" as="geometry"/>
                </mxCell>
                <mxCell id="21" style="edgeStyle=orthogonalEdgeStyle;rounded=0;orthogonalLoop=1;html=1;" parent="1" edge="1">
                    <mxGeometry relative="1" as="geometry">
                        <mxPoint x="100" y="60" as="sourcePoint"/>
                        <mxPoint x="250" y="61" as="targetPoint"/>
                    </mxGeometry>
                </mxCell>
                <mxCell id="22" value="" style="ellipse;shape=umlControl;whiteSpace=wrap;html=1;" parent="1" vertex="1">
                    <mxGeometry x="600" y="190" width="90" height="100" as="geometry"/>
                </mxCell>
                <mxCell id="24" style="edgeStyle=none;html=1;exitX=1;exitY=0.796;exitDx=0;exitDy=0;exitPerimeter=0;" parent="1" source="13" target="22" edge="1">
                    <mxGeometry relative="1" as="geometry">
                        <mxPoint x="480" y="180" as="targetPoint"/>
                        <mxPoint x="528" y="111" as="sourcePoint"/>
                    </mxGeometry>
                </mxCell>
                <mxCell id="25" value="ログアウト" style="text;html=1;align=center;verticalAlign=middle;resizable=0;points=[];autosize=1;strokeColor=none;fillColor=none;" parent="1" vertex="1">
                    <mxGeometry x="620" y="350" width="80" height="30" as="geometry"/>
                </mxCell>
                <mxCell id="26" value="" style="endArrow=block;startArrow=block;endFill=1;startFill=1;html=1;exitX=0.704;exitY=0.12;exitDx=0;exitDy=0;exitPerimeter=0;entryX=0;entryY=1;entryDx=0;entryDy=0;" parent="1" source="22" target="9" edge="1">
                    <mxGeometry width="160" relative="1" as="geometry">
                        <mxPoint x="600" y="77" as="sourcePoint"/>
                        <mxPoint x="810" y="160" as="targetPoint"/>
                        <Array as="points"/>
                    </mxGeometry>
                </mxCell>
                <mxCell id="28" style="edgeStyle=none;html=1;exitX=0.185;exitY=0.893;exitDx=0;exitDy=0;exitPerimeter=0;" parent="1" source="22" target="33" edge="1">
                    <mxGeometry relative="1" as="geometry">
                        <mxPoint x="545.3400954653941" y="420" as="targetPoint"/>
                        <mxPoint x="500" y="254" as="sourcePoint"/>
                    </mxGeometry>
                </mxCell>
                <mxCell id="31" value="ログイン画面" style="text;html=1;align=center;verticalAlign=middle;resizable=0;points=[];autosize=1;strokeColor=none;fillColor=none;" parent="1" vertex="1">
                    <mxGeometry x="495" y="460" width="100" height="30" as="geometry"/>
                </mxCell>
                <mxCell id="33" value="" style="shape=umlBoundary;whiteSpace=wrap;html=1;" parent="1" vertex="1">
                    <mxGeometry x="490" y="340" width="100" height="80" as="geometry"/>
                </mxCell>
                <mxCell id="35" value="注文データベース" style="text;html=1;align=center;verticalAlign=middle;resizable=0;points=[];autosize=1;strokeColor=none;fillColor=none;" parent="1" vertex="1">
                    <mxGeometry x="705" y="118" width="120" height="30" as="geometry"/>
                </mxCell>
                <mxCell id="36" value="返品依頼をクリック" style="text;html=1;align=center;verticalAlign=middle;resizable=0;points=[];autosize=1;strokeColor=none;fillColor=none;" parent="1" vertex="1">
                    <mxGeometry x="125" y="88" width="130" height="30" as="geometry"/>
                </mxCell>
                <mxCell id="37" value="商品を確認" style="text;html=1;align=center;verticalAlign=middle;resizable=0;points=[];autosize=1;strokeColor=none;fillColor=none;" parent="1" vertex="1">
                    <mxGeometry x="615" y="75" width="80" height="30" as="geometry"/>
                </mxCell>
                <mxCell id="39" value="&lt;span style=&quot;color: rgb(0, 0, 0); text-wrap-mode: nowrap;&quot;&gt;注文履歴&lt;/span&gt;" style="ellipse;shape=umlControl;whiteSpace=wrap;html=1;" parent="1" vertex="1">
                    <mxGeometry x="210" y="148" width="70" height="80" as="geometry"/>
                </mxCell>
                <mxCell id="40" value="Boundary Object" style="shape=umlBoundary;whiteSpace=wrap;html=1;" parent="1" vertex="1">
                    <mxGeometry x="170" y="325" width="100" height="80" as="geometry"/>
                </mxCell>
                <mxCell id="42" value="" style="html=1;verticalAlign=bottom;endArrow=block;curved=0;rounded=0;exitX=0.58;exitY=1.05;exitDx=0;exitDy=0;exitPerimeter=0;" parent="1" source="4" target="39" edge="1">
                    <mxGeometry width="80" relative="1" as="geometry">
                        <mxPoint x="350" y="190" as="sourcePoint"/>
                        <mxPoint x="430" y="190" as="targetPoint"/>
                    </mxGeometry>
                </mxCell>
            </root>
        </mxGraphModel>
    </diagram>
</mxfile>